<mxfile host="65bd71144e" modified="2021-10-27T06:25:41.206Z" agent="5.0 (Windows NT 10.0; Win64; x64) AppleWebKit/537.36 (KHTML, like Gecko) Code/1.61.2 Chrome/91.0.4472.164 Electron/13.5.1 Safari/537.36" version="15.5.9" etag="mfQ__bN0O5H8JEtCv5Wt" type="embed" pages="3">
    <diagram id="CvgPCsXY9eOnfGZYOeE3" name="人事管理_ユースケース図">
        <mxGraphModel dx="821" dy="567" grid="1" gridSize="10" guides="1" tooltips="1" connect="1" arrows="1" fold="1" page="1" pageScale="1" pageWidth="827" pageHeight="1169" math="0" shadow="0">
            <root>
                <mxCell id="RNgX-jbUkB-9QtbaT86_-0"/>
                <mxCell id="RNgX-jbUkB-9QtbaT86_-1" parent="RNgX-jbUkB-9QtbaT86_-0"/>
                <mxCell id="a52AzNElscUmO8eeWN40-0" value="" style="rounded=1;whiteSpace=wrap;html=1;" parent="RNgX-jbUkB-9QtbaT86_-1" vertex="1">
                    <mxGeometry x="690" y="366.75" width="70" height="207.5" as="geometry"/>
                </mxCell>
                <mxCell id="bhvNu0Lqs81DkffSNlAM-0" value="" style="rounded=0;whiteSpace=wrap;html=1;strokeColor=#36393d;fillColor=#f9f7ed;fontColor=#080808;" parent="RNgX-jbUkB-9QtbaT86_-1" vertex="1">
                    <mxGeometry x="268" y="320" width="400" height="240" as="geometry"/>
                </mxCell>
                <mxCell id="bhvNu0Lqs81DkffSNlAM-1" value="正規社員" style="shape=umlActor;verticalLabelPosition=bottom;verticalAlign=top;html=1;outlineConnect=0;strokeColor=#36393d;fillColor=#f9f7ed;fontColor=#080808;" parent="RNgX-jbUkB-9QtbaT86_-1" vertex="1">
                    <mxGeometry x="710" y="376.75" width="30" height="60" as="geometry"/>
                </mxCell>
                <mxCell id="bhvNu0Lqs81DkffSNlAM-2" value="" style="rounded=0;whiteSpace=wrap;html=1;strokeColor=#36393d;fillColor=#f9f7ed;fontColor=#080808;" parent="RNgX-jbUkB-9QtbaT86_-1" vertex="1">
                    <mxGeometry x="820" y="322.5" width="320" height="255" as="geometry"/>
                </mxCell>
                <mxCell id="bhvNu0Lqs81DkffSNlAM-3" value="" style="rounded=1;whiteSpace=wrap;html=1;arcSize=4;strokeColor=#36393d;fillColor=#DEDCD3;fontColor=#080808;" parent="RNgX-jbUkB-9QtbaT86_-1" vertex="1">
                    <mxGeometry x="832" y="352.5" width="300" height="145" as="geometry"/>
                </mxCell>
                <mxCell id="bhvNu0Lqs81DkffSNlAM-4" value="管理者" style="shape=umlActor;verticalLabelPosition=bottom;verticalAlign=top;html=1;outlineConnect=0;strokeColor=#36393d;fillColor=#f9f7ed;fontColor=#080808;" parent="RNgX-jbUkB-9QtbaT86_-1" vertex="1">
                    <mxGeometry x="220" y="371.75" width="40" height="70" as="geometry"/>
                </mxCell>
                <mxCell id="bhvNu0Lqs81DkffSNlAM-5" value="従業員情報を参照する" style="ellipse;whiteSpace=wrap;html=1;strokeColor=#36393d;fillColor=#f9f7ed;fontColor=#080808;" parent="RNgX-jbUkB-9QtbaT86_-1" vertex="1">
                    <mxGeometry x="914" y="377.5" width="140" height="35" as="geometry"/>
                </mxCell>
                <mxCell id="bhvNu0Lqs81DkffSNlAM-6" value="非正規社員" style="shape=umlActor;verticalLabelPosition=bottom;verticalAlign=top;html=1;outlineConnect=0;strokeColor=#36393d;fillColor=#f9f7ed;fontColor=#080808;" parent="RNgX-jbUkB-9QtbaT86_-1" vertex="1">
                    <mxGeometry x="715" y="484.25" width="20" height="50" as="geometry"/>
                </mxCell>
                <mxCell id="bhvNu0Lqs81DkffSNlAM-7" value="店舗情報を参照する" style="ellipse;whiteSpace=wrap;html=1;strokeColor=#36393d;fillColor=#f9f7ed;fontColor=#080808;" parent="RNgX-jbUkB-9QtbaT86_-1" vertex="1">
                    <mxGeometry x="914" y="415" width="140" height="35" as="geometry"/>
                </mxCell>
                <mxCell id="bhvNu0Lqs81DkffSNlAM-8" value="" style="rounded=1;whiteSpace=wrap;html=1;arcSize=4;strokeColor=#36393d;fillColor=#DEDCD3;fontColor=#080808;" parent="RNgX-jbUkB-9QtbaT86_-1" vertex="1">
                    <mxGeometry x="292" y="350" width="356" height="200" as="geometry"/>
                </mxCell>
                <mxCell id="bhvNu0Lqs81DkffSNlAM-9" value="人事情報管理" style="text;html=1;strokeColor=none;fillColor=none;align=center;verticalAlign=middle;whiteSpace=wrap;rounded=0;fontColor=#080808;" parent="RNgX-jbUkB-9QtbaT86_-1" vertex="1">
                    <mxGeometry x="821" y="323.5" width="80" height="20" as="geometry"/>
                </mxCell>
                <mxCell id="bhvNu0Lqs81DkffSNlAM-10" value="マスタ管理" style="text;html=1;strokeColor=none;fillColor=none;align=center;verticalAlign=middle;whiteSpace=wrap;rounded=0;fontColor=#080808;" parent="RNgX-jbUkB-9QtbaT86_-1" vertex="1">
                    <mxGeometry x="268" y="320" width="66" height="30" as="geometry"/>
                </mxCell>
                <mxCell id="bhvNu0Lqs81DkffSNlAM-11" value="人事情報参照" style="text;html=1;strokeColor=none;fillColor=none;align=center;verticalAlign=middle;whiteSpace=wrap;rounded=0;fontColor=#080808;" parent="RNgX-jbUkB-9QtbaT86_-1" vertex="1">
                    <mxGeometry x="840" y="362.5" width="74" height="20" as="geometry"/>
                </mxCell>
                <mxCell id="bhvNu0Lqs81DkffSNlAM-12" value="従業員情報を管理する" style="ellipse;whiteSpace=wrap;html=1;strokeColor=#36393d;fillColor=#f9f7ed;fontColor=#080808;" parent="RNgX-jbUkB-9QtbaT86_-1" vertex="1">
                    <mxGeometry x="368" y="390" width="200" height="35" as="geometry"/>
                </mxCell>
                <mxCell id="bhvNu0Lqs81DkffSNlAM-13" value="店舗情報を管理する" style="ellipse;whiteSpace=wrap;html=1;strokeColor=#36393d;fillColor=#f9f7ed;fontColor=#080808;" parent="RNgX-jbUkB-9QtbaT86_-1" vertex="1">
                    <mxGeometry x="370" y="437.5" width="200" height="35" as="geometry"/>
                </mxCell>
                <mxCell id="bhvNu0Lqs81DkffSNlAM-14" value="ユーザの権限を編集する" style="ellipse;whiteSpace=wrap;html=1;strokeColor=#36393d;fillColor=#f9f7ed;fontColor=#080808;" parent="RNgX-jbUkB-9QtbaT86_-1" vertex="1">
                    <mxGeometry x="368" y="490" width="200" height="35" as="geometry"/>
                </mxCell>
                <mxCell id="bhvNu0Lqs81DkffSNlAM-16" value="" style="endArrow=classic;html=1;rounded=0;exitX=1;exitY=0.5;exitDx=0;exitDy=0;entryX=0;entryY=0.5;entryDx=0;entryDy=0;strokeColor=#36393d;fillColor=#f9f7ed;fontColor=#080808;" parent="RNgX-jbUkB-9QtbaT86_-1" source="a52AzNElscUmO8eeWN40-0" target="bhvNu0Lqs81DkffSNlAM-3" edge="1">
                    <mxGeometry width="50" height="50" relative="1" as="geometry">
                        <mxPoint x="1040" y="470" as="sourcePoint"/>
                        <mxPoint x="1090" y="420" as="targetPoint"/>
                    </mxGeometry>
                </mxCell>
                <mxCell id="bhvNu0Lqs81DkffSNlAM-19" value="勤務店舗状況を管理する" style="ellipse;whiteSpace=wrap;html=1;strokeColor=#36393d;fillColor=#f9f7ed;fontColor=#080808;" parent="RNgX-jbUkB-9QtbaT86_-1" vertex="1">
                    <mxGeometry x="914" y="453" width="140" height="35" as="geometry"/>
                </mxCell>
                <mxCell id="bhvNu0Lqs81DkffSNlAM-20" value="" style="endArrow=classic;html=1;rounded=0;exitX=0.5;exitY=0.5;exitDx=0;exitDy=0;exitPerimeter=0;entryX=0;entryY=0.5;entryDx=0;entryDy=0;strokeColor=#36393d;fillColor=#f9f7ed;fontColor=#080808;" parent="RNgX-jbUkB-9QtbaT86_-1" source="bhvNu0Lqs81DkffSNlAM-4" target="bhvNu0Lqs81DkffSNlAM-12" edge="1">
                    <mxGeometry width="50" height="50" relative="1" as="geometry">
                        <mxPoint x="340" y="660" as="sourcePoint"/>
                        <mxPoint x="390" y="610" as="targetPoint"/>
                    </mxGeometry>
                </mxCell>
                <mxCell id="bhvNu0Lqs81DkffSNlAM-21" value="" style="endArrow=classic;html=1;rounded=0;exitX=0.5;exitY=0.5;exitDx=0;exitDy=0;exitPerimeter=0;entryX=0;entryY=0.5;entryDx=0;entryDy=0;strokeColor=#36393d;fillColor=#f9f7ed;fontColor=#080808;" parent="RNgX-jbUkB-9QtbaT86_-1" source="bhvNu0Lqs81DkffSNlAM-4" target="bhvNu0Lqs81DkffSNlAM-13" edge="1">
                    <mxGeometry width="50" height="50" relative="1" as="geometry">
                        <mxPoint x="100" y="540" as="sourcePoint"/>
                        <mxPoint x="150" y="490" as="targetPoint"/>
                    </mxGeometry>
                </mxCell>
                <mxCell id="bhvNu0Lqs81DkffSNlAM-22" value="" style="endArrow=classic;html=1;rounded=0;exitX=0.5;exitY=0.5;exitDx=0;exitDy=0;exitPerimeter=0;entryX=0;entryY=0.5;entryDx=0;entryDy=0;strokeColor=#36393d;fillColor=#f9f7ed;fontColor=#080808;" parent="RNgX-jbUkB-9QtbaT86_-1" source="bhvNu0Lqs81DkffSNlAM-4" target="bhvNu0Lqs81DkffSNlAM-14" edge="1">
                    <mxGeometry width="50" height="50" relative="1" as="geometry">
                        <mxPoint x="340" y="660" as="sourcePoint"/>
                        <mxPoint x="390" y="610" as="targetPoint"/>
                    </mxGeometry>
                </mxCell>
                <mxCell id="bhvNu0Lqs81DkffSNlAM-23" value="" style="rounded=1;whiteSpace=wrap;html=1;arcSize=8;strokeColor=#36393d;fillColor=#DEDCD3;fontColor=#080808;" parent="RNgX-jbUkB-9QtbaT86_-1" vertex="1">
                    <mxGeometry x="832" y="502" width="300" height="65" as="geometry"/>
                </mxCell>
                <mxCell id="bhvNu0Lqs81DkffSNlAM-24" value="情報検索" style="text;html=1;strokeColor=none;fillColor=none;align=center;verticalAlign=middle;whiteSpace=wrap;rounded=0;fontColor=#080808;" parent="RNgX-jbUkB-9QtbaT86_-1" vertex="1">
                    <mxGeometry x="838" y="512" width="56" height="20" as="geometry"/>
                </mxCell>
                <mxCell id="bhvNu0Lqs81DkffSNlAM-25" value="条件絞込で検索する" style="ellipse;whiteSpace=wrap;html=1;strokeColor=#36393d;fillColor=#f9f7ed;fontColor=#080808;" parent="RNgX-jbUkB-9QtbaT86_-1" vertex="1">
                    <mxGeometry x="908" y="524.5" width="140" height="35" as="geometry"/>
                </mxCell>
                <mxCell id="bhvNu0Lqs81DkffSNlAM-28" value="" style="endArrow=classic;html=1;rounded=0;entryX=0;entryY=0.5;entryDx=0;entryDy=0;strokeColor=#36393d;fillColor=#f9f7ed;fontColor=#080808;exitX=1;exitY=0.5;exitDx=0;exitDy=0;" parent="RNgX-jbUkB-9QtbaT86_-1" source="a52AzNElscUmO8eeWN40-0" target="bhvNu0Lqs81DkffSNlAM-23" edge="1">
                    <mxGeometry width="50" height="50" relative="1" as="geometry">
                        <mxPoint x="890" y="530" as="sourcePoint"/>
                        <mxPoint x="1090" y="410" as="targetPoint"/>
                    </mxGeometry>
                </mxCell>
                <mxCell id="bhvNu0Lqs81DkffSNlAM-29" value="" style="endArrow=classic;html=1;rounded=0;exitX=0.5;exitY=0.5;exitDx=0;exitDy=0;exitPerimeter=0;entryX=1;entryY=0.5;entryDx=0;entryDy=0;strokeColor=#36393d;fillColor=#f9f7ed;fontColor=#080808;" parent="RNgX-jbUkB-9QtbaT86_-1" source="bhvNu0Lqs81DkffSNlAM-1" target="bhvNu0Lqs81DkffSNlAM-12" edge="1">
                    <mxGeometry width="50" height="50" relative="1" as="geometry">
                        <mxPoint x="340" y="650" as="sourcePoint"/>
                        <mxPoint x="370" y="440" as="targetPoint"/>
                    </mxGeometry>
                </mxCell>
                <mxCell id="bhvNu0Lqs81DkffSNlAM-31" value="人事情報管理" style="text;html=1;strokeColor=none;fillColor=none;align=center;verticalAlign=middle;whiteSpace=wrap;rounded=0;fontColor=#080808;" parent="RNgX-jbUkB-9QtbaT86_-1" vertex="1">
                    <mxGeometry x="297" y="360" width="80" height="20" as="geometry"/>
                </mxCell>
            </root>
        </mxGraphModel>
    </diagram>
    <diagram id="1RIJjTR2KE_wcN-HXxek" name="在庫管理_ユースケース図">
        <mxGraphModel dx="1173" dy="810" grid="1" gridSize="10" guides="1" tooltips="1" connect="1" arrows="1" fold="1" page="1" pageScale="1" pageWidth="827" pageHeight="1169" math="0" shadow="0">
            <root>
                <mxCell id="0"/>
                <mxCell id="mOK6NjzvD6mZe8noQFNt-67" value="Untitled Layer" style="" parent="0"/>
                <mxCell id="mOK6NjzvD6mZe8noQFNt-68" value="" style="rounded=0;whiteSpace=wrap;html=1;strokeColor=#36393d;fillColor=#f9f7ed;fontColor=#080808;" parent="mOK6NjzvD6mZe8noQFNt-67" vertex="1">
                    <mxGeometry x="901" y="150" width="400" height="410" as="geometry"/>
                </mxCell>
                <mxCell id="mOK6NjzvD6mZe8noQFNt-69" value="" style="rounded=1;whiteSpace=wrap;html=1;arcSize=4;strokeColor=#36393d;fillColor=#DEDCD3;fontColor=#080808;" parent="mOK6NjzvD6mZe8noQFNt-67" vertex="1">
                    <mxGeometry x="922" y="179" width="356" height="87" as="geometry"/>
                </mxCell>
                <mxCell id="mOK6NjzvD6mZe8noQFNt-71" value="" style="rounded=1;whiteSpace=wrap;html=1;arcSize=4;strokeColor=#36393d;fillColor=#DEDCD3;fontColor=#080808;" parent="mOK6NjzvD6mZe8noQFNt-67" vertex="1">
                    <mxGeometry x="922" y="269" width="356" height="81" as="geometry"/>
                </mxCell>
                <mxCell id="mOK6NjzvD6mZe8noQFNt-72" value="検索機能" style="text;html=1;strokeColor=none;fillColor=none;align=center;verticalAlign=middle;whiteSpace=wrap;rounded=0;fontColor=#080808;" parent="mOK6NjzvD6mZe8noQFNt-67" vertex="1">
                    <mxGeometry x="917" y="269" width="360" height="20" as="geometry"/>
                </mxCell>
                <mxCell id="mOK6NjzvD6mZe8noQFNt-73" value="" style="rounded=1;whiteSpace=wrap;html=1;arcSize=8;strokeColor=#36393d;fillColor=#DEDCD3;fontColor=#080808;" parent="mOK6NjzvD6mZe8noQFNt-67" vertex="1">
                    <mxGeometry x="923" y="356" width="356" height="55" as="geometry"/>
                </mxCell>
                <mxCell id="mOK6NjzvD6mZe8noQFNt-75" value="" style="rounded=1;whiteSpace=wrap;html=1;arcSize=4;strokeColor=#36393d;fillColor=#DEDCD3;fontColor=#080808;" parent="mOK6NjzvD6mZe8noQFNt-67" vertex="1">
                    <mxGeometry x="923" y="414" width="356" height="50" as="geometry"/>
                </mxCell>
                <mxCell id="mOK6NjzvD6mZe8noQFNt-77" value="" style="rounded=1;whiteSpace=wrap;html=1;arcSize=4;strokeColor=#36393d;fillColor=#DEDCD3;fontColor=#080808;" parent="mOK6NjzvD6mZe8noQFNt-67" vertex="1">
                    <mxGeometry x="924" y="467" width="356" height="80" as="geometry"/>
                </mxCell>
                <mxCell id="1" style="" parent="0"/>
                <mxCell id="VGDOHHYCb-uCLaKSD1Ca-94" value="" style="rounded=1;whiteSpace=wrap;html=1;" parent="1" vertex="1">
                    <mxGeometry x="800" y="340" width="60" height="210" as="geometry"/>
                </mxCell>
                <mxCell id="2" value="" style="rounded=0;whiteSpace=wrap;html=1;strokeColor=#36393d;fillColor=#f9f7ed;fontColor=#080808;" parent="1" vertex="1">
                    <mxGeometry x="378" y="270" width="400" height="291" as="geometry"/>
                </mxCell>
                <mxCell id="6" value="管理者" style="shape=umlActor;verticalLabelPosition=bottom;verticalAlign=top;html=1;outlineConnect=0;strokeColor=#36393d;fillColor=#f9f7ed;fontColor=#080808;" parent="1" vertex="1">
                    <mxGeometry x="280" y="373.5" width="40" height="70" as="geometry"/>
                </mxCell>
                <mxCell id="7" value="移動指示を入力する" style="ellipse;whiteSpace=wrap;html=1;strokeColor=#36393d;fillColor=#f9f7ed;fontColor=#080808;" parent="1" vertex="1">
                    <mxGeometry x="927" y="199" width="170" height="27" as="geometry"/>
                </mxCell>
                <mxCell id="9" value="" style="rounded=1;whiteSpace=wrap;html=1;arcSize=4;strokeColor=#36393d;fillColor=#DEDCD3;fontColor=#080808;" parent="1" vertex="1">
                    <mxGeometry x="400" y="300" width="356" height="251" as="geometry"/>
                </mxCell>
                <mxCell id="10" value="在庫管理" style="text;html=1;strokeColor=none;fillColor=none;align=center;verticalAlign=middle;whiteSpace=wrap;rounded=0;fontColor=#080808;" parent="1" vertex="1">
                    <mxGeometry x="900" y="156" width="80" height="20" as="geometry"/>
                </mxCell>
                <mxCell id="11" value="マスタ管理" style="text;html=1;strokeColor=none;fillColor=none;align=center;verticalAlign=middle;whiteSpace=wrap;rounded=0;fontColor=#080808;" parent="1" vertex="1">
                    <mxGeometry x="380" y="270" width="80" height="30" as="geometry"/>
                </mxCell>
                <mxCell id="12" value="在庫管理" style="text;html=1;strokeColor=none;fillColor=none;align=center;verticalAlign=middle;whiteSpace=wrap;rounded=0;fontColor=#080808;" parent="1" vertex="1">
                    <mxGeometry x="916" y="179" width="360" height="20" as="geometry"/>
                </mxCell>
                <mxCell id="14" value="商品情報を管理する" style="ellipse;whiteSpace=wrap;html=1;strokeColor=#36393d;fillColor=#f9f7ed;fontColor=#080808;" parent="1" vertex="1">
                    <mxGeometry x="478" y="330" width="200" height="35" as="geometry"/>
                </mxCell>
                <mxCell id="21" value="" style="endArrow=classic;html=1;rounded=0;exitX=0.5;exitY=0.5;exitDx=0;exitDy=0;exitPerimeter=0;entryX=0;entryY=0.5;entryDx=0;entryDy=0;strokeColor=#36393d;fillColor=#f9f7ed;fontColor=#080808;" parent="1" source="6" target="14" edge="1">
                    <mxGeometry width="50" height="50" relative="1" as="geometry">
                        <mxPoint x="210" y="541" as="sourcePoint"/>
                        <mxPoint x="260" y="491" as="targetPoint"/>
                    </mxGeometry>
                </mxCell>
                <mxCell id="28" value="" style="endArrow=classic;html=1;rounded=0;strokeColor=#36393d;fillColor=#f9f7ed;fontColor=#080808;entryX=1;entryY=0.5;entryDx=0;entryDy=0;exitX=0.5;exitY=0.5;exitDx=0;exitDy=0;exitPerimeter=0;" parent="1" source="VGDOHHYCb-uCLaKSD1Ca-96" target="32" edge="1">
                    <mxGeometry width="50" height="50" relative="1" as="geometry">
                        <mxPoint x="800" y="434.5" as="sourcePoint"/>
                        <mxPoint x="380" y="437" as="targetPoint"/>
                    </mxGeometry>
                </mxCell>
                <mxCell id="30" value="在庫管理" style="text;html=1;strokeColor=none;fillColor=none;align=center;verticalAlign=middle;whiteSpace=wrap;rounded=0;fontColor=#080808;" parent="1" vertex="1">
                    <mxGeometry x="402" y="310" width="348" height="20" as="geometry"/>
                </mxCell>
                <mxCell id="31" value="倉庫情報を管理する" style="ellipse;whiteSpace=wrap;html=1;strokeColor=#36393d;fillColor=#f9f7ed;fontColor=#080808;" parent="1" vertex="1">
                    <mxGeometry x="478" y="381" width="200" height="35" as="geometry"/>
                </mxCell>
                <mxCell id="32" value="ベンチマークマスタを管理する" style="ellipse;whiteSpace=wrap;html=1;strokeColor=#36393d;fillColor=#f9f7ed;fontColor=#080808;" parent="1" vertex="1">
                    <mxGeometry x="484" y="421" width="200" height="35" as="geometry"/>
                </mxCell>
                <mxCell id="33" value="売上情報を管理する" style="ellipse;whiteSpace=wrap;html=1;strokeColor=#36393d;fillColor=#f9f7ed;fontColor=#080808;" parent="1" vertex="1">
                    <mxGeometry x="481" y="461" width="200" height="35" as="geometry"/>
                </mxCell>
                <mxCell id="34" value="販売履歴を管理する" style="ellipse;whiteSpace=wrap;html=1;strokeColor=#36393d;fillColor=#f9f7ed;fontColor=#080808;" parent="1" vertex="1">
                    <mxGeometry x="481" y="501" width="200" height="35" as="geometry"/>
                </mxCell>
                <mxCell id="35" value="倉庫別在庫を管理する" style="ellipse;whiteSpace=wrap;html=1;strokeColor=#36393d;fillColor=#f9f7ed;fontColor=#080808;" parent="1" vertex="1">
                    <mxGeometry x="1101" y="199" width="170" height="27" as="geometry"/>
                </mxCell>
                <mxCell id="36" value="商品情報を管理する" style="ellipse;whiteSpace=wrap;html=1;strokeColor=#36393d;fillColor=#f9f7ed;fontColor=#080808;" parent="1" vertex="1">
                    <mxGeometry x="927" y="230" width="170" height="27" as="geometry"/>
                </mxCell>
                <mxCell id="37" value="セット商品を管理する" style="ellipse;whiteSpace=wrap;html=1;strokeColor=#36393d;fillColor=#f9f7ed;fontColor=#080808;" parent="1" vertex="1">
                    <mxGeometry x="1101" y="230" width="170" height="27" as="geometry"/>
                </mxCell>
                <mxCell id="40" value="商品情報を検索する" style="ellipse;whiteSpace=wrap;html=1;strokeColor=#36393d;fillColor=#f9f7ed;fontColor=#080808;" parent="1" vertex="1">
                    <mxGeometry x="927" y="286" width="170" height="27" as="geometry"/>
                </mxCell>
                <mxCell id="42" value="ボトルネック情報を検索する" style="ellipse;whiteSpace=wrap;html=1;strokeColor=#36393d;fillColor=#f9f7ed;fontColor=#080808;" parent="1" vertex="1">
                    <mxGeometry x="1100" y="286" width="170" height="27" as="geometry"/>
                </mxCell>
                <mxCell id="43" value="スペック情報を検索する" style="ellipse;whiteSpace=wrap;html=1;strokeColor=#36393d;fillColor=#f9f7ed;fontColor=#080808;" parent="1" vertex="1">
                    <mxGeometry x="927" y="318" width="170" height="27" as="geometry"/>
                </mxCell>
                <mxCell id="45" value="取置予約管理" style="text;html=1;strokeColor=none;fillColor=none;align=center;verticalAlign=middle;whiteSpace=wrap;rounded=0;fontColor=#080808;" parent="1" vertex="1">
                    <mxGeometry x="919" y="354" width="360" height="20" as="geometry"/>
                </mxCell>
                <mxCell id="46" value="取置予約を管理する" style="ellipse;whiteSpace=wrap;html=1;strokeColor=#36393d;fillColor=#f9f7ed;fontColor=#080808;" parent="1" vertex="1">
                    <mxGeometry x="929" y="373" width="170" height="27" as="geometry"/>
                </mxCell>
                <mxCell id="49" value="粗利計算をする" style="ellipse;whiteSpace=wrap;html=1;strokeColor=#36393d;fillColor=#f9f7ed;fontColor=#080808;" parent="1" vertex="1">
                    <mxGeometry x="1103" y="431" width="170" height="27" as="geometry"/>
                </mxCell>
                <mxCell id="52" value="見積" style="text;html=1;strokeColor=none;fillColor=none;align=center;verticalAlign=middle;whiteSpace=wrap;rounded=0;fontColor=#080808;" parent="1" vertex="1">
                    <mxGeometry x="920" y="414" width="360" height="20" as="geometry"/>
                </mxCell>
                <mxCell id="53" value="販売価格の見積をする" style="ellipse;whiteSpace=wrap;html=1;strokeColor=#36393d;fillColor=#f9f7ed;fontColor=#080808;" parent="1" vertex="1">
                    <mxGeometry x="929" y="431" width="170" height="27" as="geometry"/>
                </mxCell>
                <mxCell id="58" value="売上情報を参照する" style="ellipse;whiteSpace=wrap;html=1;strokeColor=#36393d;fillColor=#f9f7ed;fontColor=#080808;" parent="1" vertex="1">
                    <mxGeometry x="1105" y="484" width="170" height="27" as="geometry"/>
                </mxCell>
                <mxCell id="59" value="売上" style="text;html=1;strokeColor=none;fillColor=none;align=center;verticalAlign=middle;whiteSpace=wrap;rounded=0;fontColor=#080808;" parent="1" vertex="1">
                    <mxGeometry x="921" y="467" width="360" height="20" as="geometry"/>
                </mxCell>
                <mxCell id="60" value="売上情報を登録する" style="ellipse;whiteSpace=wrap;html=1;strokeColor=#36393d;fillColor=#f9f7ed;fontColor=#080808;" parent="1" vertex="1">
                    <mxGeometry x="930" y="485" width="170" height="26" as="geometry"/>
                </mxCell>
                <mxCell id="63" value="販売履歴を検索する" style="ellipse;whiteSpace=wrap;html=1;strokeColor=#36393d;fillColor=#f9f7ed;fontColor=#080808;" parent="1" vertex="1">
                    <mxGeometry x="929.5" y="514" width="170" height="27" as="geometry"/>
                </mxCell>
                <mxCell id="64" value="" style="endArrow=classic;html=1;rounded=0;exitX=0.5;exitY=0.5;exitDx=0;exitDy=0;exitPerimeter=0;entryX=0;entryY=0.5;entryDx=0;entryDy=0;" parent="1" source="6" target="31" edge="1">
                    <mxGeometry width="50" height="50" relative="1" as="geometry">
                        <mxPoint x="320" y="501" as="sourcePoint"/>
                        <mxPoint x="370" y="451" as="targetPoint"/>
                    </mxGeometry>
                </mxCell>
                <mxCell id="65" value="" style="endArrow=classic;html=1;rounded=0;exitX=0.5;exitY=0.5;exitDx=0;exitDy=0;exitPerimeter=0;entryX=0;entryY=0.5;entryDx=0;entryDy=0;" parent="1" source="6" target="32" edge="1">
                    <mxGeometry width="50" height="50" relative="1" as="geometry">
                        <mxPoint x="310" y="418.5" as="sourcePoint"/>
                        <mxPoint x="488.00000000000034" y="408.5" as="targetPoint"/>
                    </mxGeometry>
                </mxCell>
                <mxCell id="66" value="" style="endArrow=classic;html=1;rounded=0;exitX=0.5;exitY=0.5;exitDx=0;exitDy=0;exitPerimeter=0;entryX=0;entryY=0.5;entryDx=0;entryDy=0;" parent="1" source="6" target="33" edge="1">
                    <mxGeometry width="50" height="50" relative="1" as="geometry">
                        <mxPoint x="320" y="428.5" as="sourcePoint"/>
                        <mxPoint x="498.00000000000034" y="418.5" as="targetPoint"/>
                    </mxGeometry>
                </mxCell>
                <mxCell id="67" value="" style="endArrow=classic;html=1;rounded=0;exitX=0.5;exitY=0.5;exitDx=0;exitDy=0;exitPerimeter=0;entryX=0;entryY=0.5;entryDx=0;entryDy=0;" parent="1" source="6" target="34" edge="1">
                    <mxGeometry width="50" height="50" relative="1" as="geometry">
                        <mxPoint x="330" y="438.5" as="sourcePoint"/>
                        <mxPoint x="508.00000000000034" y="428.5" as="targetPoint"/>
                    </mxGeometry>
                </mxCell>
                <mxCell id="VGDOHHYCb-uCLaKSD1Ca-91" value="" style="endArrow=classic;html=1;rounded=0;exitX=1;exitY=0.25;exitDx=0;exitDy=0;strokeColor=#36393d;fillColor=#f9f7ed;fontColor=#080808;entryX=0;entryY=0.5;entryDx=0;entryDy=0;" parent="1" source="VGDOHHYCb-uCLaKSD1Ca-94" target="mOK6NjzvD6mZe8noQFNt-69" edge="1">
                    <mxGeometry width="50" height="50" relative="1" as="geometry">
                        <mxPoint x="950" y="281.25" as="sourcePoint"/>
                        <mxPoint x="1070" y="77" as="targetPoint"/>
                    </mxGeometry>
                </mxCell>
                <mxCell id="VGDOHHYCb-uCLaKSD1Ca-96" value="正規社員" style="shape=umlActor;verticalLabelPosition=bottom;verticalAlign=top;html=1;outlineConnect=0;strokeColor=#36393d;fillColor=#f9f7ed;fontColor=#080808;" parent="1" vertex="1">
                    <mxGeometry x="810" y="350" width="40" height="70" as="geometry"/>
                </mxCell>
                <mxCell id="nKxn7mJy5K4W1X4Z80WW-80" value="非正規社員" style="shape=umlActor;verticalLabelPosition=bottom;verticalAlign=top;html=1;outlineConnect=0;strokeColor=#36393d;fillColor=#f9f7ed;fontColor=#080808;" parent="1" vertex="1">
                    <mxGeometry x="810" y="450" width="40" height="70" as="geometry"/>
                </mxCell>
                <mxCell id="nKxn7mJy5K4W1X4Z80WW-82" value="" style="endArrow=classic;html=1;rounded=0;exitX=1;exitY=0.25;exitDx=0;exitDy=0;entryX=0;entryY=0.5;entryDx=0;entryDy=0;strokeColor=#36393d;fillColor=#f9f7ed;fontColor=#080808;startArrow=none;" parent="1" source="VGDOHHYCb-uCLaKSD1Ca-94" target="mOK6NjzvD6mZe8noQFNt-71" edge="1">
                    <mxGeometry width="50" height="50" relative="1" as="geometry">
                        <mxPoint x="960" y="294.5" as="sourcePoint"/>
                        <mxPoint x="1070" y="276" as="targetPoint"/>
                    </mxGeometry>
                </mxCell>
                <mxCell id="nKxn7mJy5K4W1X4Z80WW-83" value="" style="endArrow=classic;html=1;rounded=0;exitX=1;exitY=0.25;exitDx=0;exitDy=0;entryX=0;entryY=0.5;entryDx=0;entryDy=0;strokeColor=#36393d;fillColor=#f9f7ed;fontColor=#080808;startArrow=none;" parent="1" source="VGDOHHYCb-uCLaKSD1Ca-94" target="mOK6NjzvD6mZe8noQFNt-73" edge="1">
                    <mxGeometry width="50" height="50" relative="1" as="geometry">
                        <mxPoint x="960" y="294.5" as="sourcePoint"/>
                        <mxPoint x="1070" y="380.5" as="targetPoint"/>
                    </mxGeometry>
                </mxCell>
                <mxCell id="nKxn7mJy5K4W1X4Z80WW-85" value="" style="endArrow=classic;html=1;rounded=0;exitX=1;exitY=0.25;exitDx=0;exitDy=0;entryX=0;entryY=0.5;entryDx=0;entryDy=0;strokeColor=#36393d;fillColor=#f9f7ed;fontColor=#080808;startArrow=none;" parent="1" source="VGDOHHYCb-uCLaKSD1Ca-94" target="mOK6NjzvD6mZe8noQFNt-75" edge="1">
                    <mxGeometry width="50" height="50" relative="1" as="geometry">
                        <mxPoint x="960" y="294.5" as="sourcePoint"/>
                        <mxPoint x="1070" y="510" as="targetPoint"/>
                    </mxGeometry>
                </mxCell>
                <mxCell id="nKxn7mJy5K4W1X4Z80WW-88" value="" style="endArrow=classic;html=1;rounded=0;entryX=0;entryY=0.5;entryDx=0;entryDy=0;strokeColor=#36393d;fillColor=#f9f7ed;fontColor=#080808;startArrow=none;exitX=1;exitY=0.25;exitDx=0;exitDy=0;" parent="1" source="VGDOHHYCb-uCLaKSD1Ca-94" target="mOK6NjzvD6mZe8noQFNt-77" edge="1">
                    <mxGeometry width="50" height="50" relative="1" as="geometry">
                        <mxPoint x="950" y="290" as="sourcePoint"/>
                        <mxPoint x="1070" y="720.5" as="targetPoint"/>
                    </mxGeometry>
                </mxCell>
            </root>
        </mxGraphModel>
    </diagram>
<<<<<<< HEAD
    <diagram id="t57BOz2_AoMPRST4uH8D" name="その他_ユースケース図">
        &#xa;
        <mxGraphModel dx="809" dy="339" grid="1" gridSize="10" guides="1" tooltips="1" connect="1" arrows="1" fold="1" page="1" pageScale="1" pageWidth="827" pageHeight="1169" math="0" shadow="0">
            &#xa;
=======
    <diagram id="t57BOz2_AoMPRST4uH8D" name="ログイン_ユースケース図">
        <mxGraphModel dx="1158" dy="399" grid="1" gridSize="10" guides="1" tooltips="1" connect="1" arrows="1" fold="1" page="1" pageScale="1" pageWidth="827" pageHeight="1169" math="0" shadow="0">
>>>>>>> de2711c22517fbf3a2df233e14c00a25f45ce55d
            <root>
                &#xa;
                <mxCell id="TdQh5nYLvs6xpVCR4rOV-0"/>
                &#xa;
                <mxCell id="TdQh5nYLvs6xpVCR4rOV-1" parent="TdQh5nYLvs6xpVCR4rOV-0"/>
<<<<<<< HEAD
                &#xa;
                <mxCell id="0WsyRj6sKyPAaoaiVb-Q-0" value="" style="rounded=0;whiteSpace=wrap;html=1;strokeColor=#36393d;fillColor=#f9f7ed;fontColor=#080808;" parent="TdQh5nYLvs6xpVCR4rOV-1" vertex="1">
                    &#xa;
                    <mxGeometry x="118" y="191" width="400" height="319" as="geometry"/>
                    &#xa;
                </mxCell>
                &#xa;
                <mxCell id="0WsyRj6sKyPAaoaiVb-Q-19" value="" style="rounded=1;whiteSpace=wrap;html=1;arcSize=4;strokeColor=#36393d;fillColor=#DEDCD3;fontColor=#080808;" parent="TdQh5nYLvs6xpVCR4rOV-1" vertex="1">
                    &#xa;
                    <mxGeometry x="138" y="316.5" width="356" height="173.5" as="geometry"/>
                    &#xa;
=======
                <mxCell id="fTrJj0oOOItAwGeYD-Jv-0" value="" style="rounded=0;whiteSpace=wrap;html=1;" vertex="1" parent="TdQh5nYLvs6xpVCR4rOV-1">
                    <mxGeometry x="125" y="158.25" width="190" height="220.5" as="geometry"/>
                </mxCell>
                <mxCell id="0WsyRj6sKyPAaoaiVb-Q-0" value="" style="rounded=0;whiteSpace=wrap;html=1;strokeColor=#36393d;fillColor=#f9f7ed;fontColor=#080808;" parent="TdQh5nYLvs6xpVCR4rOV-1" vertex="1">
                    <mxGeometry x="348" y="191" width="400" height="129" as="geometry"/>
>>>>>>> de2711c22517fbf3a2df233e14c00a25f45ce55d
                </mxCell>
                &#xa;
                <mxCell id="0WsyRj6sKyPAaoaiVb-Q-1" value="管理者" style="shape=umlActor;verticalLabelPosition=bottom;verticalAlign=top;html=1;outlineConnect=0;strokeColor=#36393d;fillColor=#f9f7ed;fontColor=#080808;" parent="TdQh5nYLvs6xpVCR4rOV-1" vertex="1">
<<<<<<< HEAD
                    &#xa;
                    <mxGeometry x="20" y="373.5" width="40" height="70" as="geometry"/>
                    &#xa;
=======
                    <mxGeometry x="200" y="197" width="40" height="70" as="geometry"/>
>>>>>>> de2711c22517fbf3a2df233e14c00a25f45ce55d
                </mxCell>
                &#xa;
                <mxCell id="0WsyRj6sKyPAaoaiVb-Q-2" value="" style="rounded=1;whiteSpace=wrap;html=1;arcSize=4;strokeColor=#36393d;fillColor=#DEDCD3;fontColor=#080808;" parent="TdQh5nYLvs6xpVCR4rOV-1" vertex="1">
<<<<<<< HEAD
                    &#xa;
                    <mxGeometry x="140" y="221" width="356" height="79" as="geometry"/>
                    &#xa;
                </mxCell>
                &#xa;
                <mxCell id="0WsyRj6sKyPAaoaiVb-Q-3" value="その他" style="text;html=1;strokeColor=none;fillColor=none;align=center;verticalAlign=middle;whiteSpace=wrap;rounded=0;fontColor=#080808;" parent="TdQh5nYLvs6xpVCR4rOV-1" vertex="1">
                    &#xa;
                    <mxGeometry x="120" y="191" width="80" height="30" as="geometry"/>
                    &#xa;
=======
                    <mxGeometry x="370" y="221" width="356" height="79" as="geometry"/>
>>>>>>> de2711c22517fbf3a2df233e14c00a25f45ce55d
                </mxCell>
                &#xa;
                <mxCell id="0WsyRj6sKyPAaoaiVb-Q-4" value="ログインする" style="ellipse;whiteSpace=wrap;html=1;strokeColor=#36393d;fillColor=#f9f7ed;fontColor=#080808;" parent="TdQh5nYLvs6xpVCR4rOV-1" vertex="1">
<<<<<<< HEAD
                    &#xa;
                    <mxGeometry x="211.5" y="251" width="219" height="35" as="geometry"/>
                    &#xa;
                </mxCell>
                &#xa;
                <mxCell id="0WsyRj6sKyPAaoaiVb-Q-6" value="データ履歴を参照する" style="ellipse;whiteSpace=wrap;html=1;strokeColor=#36393d;fillColor=#f9f7ed;fontColor=#080808;" parent="TdQh5nYLvs6xpVCR4rOV-1" vertex="1">
                    &#xa;
                    <mxGeometry x="218" y="350" width="200" height="35" as="geometry"/>
                    &#xa;
                </mxCell>
                &#xa;
                <mxCell id="0WsyRj6sKyPAaoaiVb-Q-7" value="" style="endArrow=classic;html=1;rounded=0;exitX=0.5;exitY=0.5;exitDx=0;exitDy=0;exitPerimeter=0;entryX=0;entryY=0.5;entryDx=0;entryDy=0;strokeColor=#36393d;fillColor=#f9f7ed;fontColor=#080808;" parent="TdQh5nYLvs6xpVCR4rOV-1" source="0WsyRj6sKyPAaoaiVb-Q-1" target="0WsyRj6sKyPAaoaiVb-Q-4" edge="1">
                    &#xa;
                    <mxGeometry width="50" height="50" relative="1" as="geometry">
                        &#xa;
                        <mxPoint x="190" y="661" as="sourcePoint"/>
                        &#xa;
                        <mxPoint x="240" y="611" as="targetPoint"/>
                        &#xa;
                    </mxGeometry>
                    &#xa;
                </mxCell>
                &#xa;
                <mxCell id="0WsyRj6sKyPAaoaiVb-Q-9" value="" style="endArrow=classic;html=1;rounded=0;exitX=0.5;exitY=0.5;exitDx=0;exitDy=0;exitPerimeter=0;entryX=0;entryY=0.5;entryDx=0;entryDy=0;strokeColor=#36393d;fillColor=#f9f7ed;fontColor=#080808;" parent="TdQh5nYLvs6xpVCR4rOV-1" source="0WsyRj6sKyPAaoaiVb-Q-1" target="0WsyRj6sKyPAaoaiVb-Q-6" edge="1">
                    &#xa;
                    <mxGeometry width="50" height="50" relative="1" as="geometry">
                        &#xa;
                        <mxPoint x="190" y="661" as="sourcePoint"/>
                        &#xa;
                        <mxPoint x="240" y="611" as="targetPoint"/>
                        &#xa;
                    </mxGeometry>
                    &#xa;
=======
                    <mxGeometry x="441.5" y="251" width="219" height="35" as="geometry"/>
>>>>>>> de2711c22517fbf3a2df233e14c00a25f45ce55d
                </mxCell>
                &#xa;
                <mxCell id="0WsyRj6sKyPAaoaiVb-Q-10" value="ログイン" style="text;html=1;strokeColor=none;fillColor=none;align=center;verticalAlign=middle;whiteSpace=wrap;rounded=0;fontColor=#080808;" parent="TdQh5nYLvs6xpVCR4rOV-1" vertex="1">
<<<<<<< HEAD
                    &#xa;
                    <mxGeometry x="142" y="231" width="348" height="20" as="geometry"/>
                    &#xa;
                </mxCell>
                &#xa;
                <mxCell id="0WsyRj6sKyPAaoaiVb-Q-11" value="データ履歴を編集する" style="ellipse;whiteSpace=wrap;html=1;strokeColor=#36393d;fillColor=#f9f7ed;fontColor=#080808;" parent="TdQh5nYLvs6xpVCR4rOV-1" vertex="1">
                    &#xa;
                    <mxGeometry x="218" y="400" width="200" height="35" as="geometry"/>
                    &#xa;
                </mxCell>
                &#xa;
                <mxCell id="0WsyRj6sKyPAaoaiVb-Q-15" value="" style="endArrow=classic;html=1;rounded=0;exitX=0.5;exitY=0.5;exitDx=0;exitDy=0;exitPerimeter=0;entryX=0;entryY=0.5;entryDx=0;entryDy=0;" parent="TdQh5nYLvs6xpVCR4rOV-1" source="0WsyRj6sKyPAaoaiVb-Q-1" target="0WsyRj6sKyPAaoaiVb-Q-11" edge="1">
                    &#xa;
                    <mxGeometry width="50" height="50" relative="1" as="geometry">
                        &#xa;
                        <mxPoint x="60" y="501" as="sourcePoint"/>
                        &#xa;
                        <mxPoint x="110" y="451" as="targetPoint"/>
                        &#xa;
                    </mxGeometry>
                    &#xa;
                </mxCell>
                &#xa;
                <mxCell id="0WsyRj6sKyPAaoaiVb-Q-21" value="ログ管理" style="text;html=1;strokeColor=none;fillColor=none;align=center;verticalAlign=middle;whiteSpace=wrap;rounded=0;fontColor=#080808;" parent="TdQh5nYLvs6xpVCR4rOV-1" vertex="1">
                    &#xa;
                    <mxGeometry x="142" y="326" width="348" height="20" as="geometry"/>
                    &#xa;
                </mxCell>
                &#xa;
                <mxCell id="0WsyRj6sKyPAaoaiVb-Q-23" style="rounded=0;orthogonalLoop=1;jettySize=auto;html=1;entryX=1;entryY=0.5;entryDx=0;entryDy=0;" parent="TdQh5nYLvs6xpVCR4rOV-1" source="0WsyRj6sKyPAaoaiVb-Q-22" target="0WsyRj6sKyPAaoaiVb-Q-4" edge="1">
                    &#xa;
                    <mxGeometry relative="1" as="geometry"/>
                    &#xa;
=======
                    <mxGeometry x="330" y="197" width="138" height="20" as="geometry"/>
                </mxCell>
                <mxCell id="0WsyRj6sKyPAaoaiVb-Q-26" value="正規社員" style="shape=umlActor;verticalLabelPosition=bottom;verticalAlign=top;html=1;outlineConnect=0;strokeColor=#36393d;fillColor=#f9f7ed;fontColor=#080808;" parent="TdQh5nYLvs6xpVCR4rOV-1" vertex="1">
                    <mxGeometry x="160" y="280" width="40" height="70" as="geometry"/>
>>>>>>> de2711c22517fbf3a2df233e14c00a25f45ce55d
                </mxCell>
                &#xa;
                <mxCell id="0WsyRj6sKyPAaoaiVb-Q-22" value="非正規社員" style="shape=umlActor;verticalLabelPosition=bottom;verticalAlign=top;html=1;outlineConnect=0;strokeColor=#36393d;fillColor=#f9f7ed;fontColor=#080808;" parent="TdQh5nYLvs6xpVCR4rOV-1" vertex="1">
<<<<<<< HEAD
                    &#xa;
                    <mxGeometry x="620" y="233.5" width="40" height="70" as="geometry"/>
                    &#xa;
                </mxCell>
                &#xa;
                <mxCell id="0WsyRj6sKyPAaoaiVb-Q-24" value="データ履歴編集履歴を参照する" style="ellipse;whiteSpace=wrap;html=1;strokeColor=#36393d;fillColor=#f9f7ed;fontColor=#080808;" parent="TdQh5nYLvs6xpVCR4rOV-1" vertex="1">
                    &#xa;
                    <mxGeometry x="221" y="450" width="200" height="35" as="geometry"/>
                    &#xa;
                </mxCell>
                &#xa;
                <mxCell id="0WsyRj6sKyPAaoaiVb-Q-25" value="" style="endArrow=classic;html=1;rounded=0;exitX=0.5;exitY=0.5;exitDx=0;exitDy=0;exitPerimeter=0;entryX=0;entryY=0.5;entryDx=0;entryDy=0;" parent="TdQh5nYLvs6xpVCR4rOV-1" source="0WsyRj6sKyPAaoaiVb-Q-1" target="0WsyRj6sKyPAaoaiVb-Q-24" edge="1">
                    &#xa;
                    <mxGeometry width="50" height="50" relative="1" as="geometry">
                        &#xa;
                        <mxPoint x="50" y="418.5" as="sourcePoint"/>
                        &#xa;
                        <mxPoint x="228" y="427.5" as="targetPoint"/>
                        &#xa;
                    </mxGeometry>
                    &#xa;
                </mxCell>
                &#xa;
                <mxCell id="0WsyRj6sKyPAaoaiVb-Q-27" style="edgeStyle=none;rounded=0;orthogonalLoop=1;jettySize=auto;html=1;entryX=1;entryY=0.5;entryDx=0;entryDy=0;" parent="TdQh5nYLvs6xpVCR4rOV-1" source="0WsyRj6sKyPAaoaiVb-Q-26" target="0WsyRj6sKyPAaoaiVb-Q-4" edge="1">
                    &#xa;
=======
                    <mxGeometry x="240" y="280" width="40" height="70" as="geometry"/>
                </mxCell>
                <mxCell id="fTrJj0oOOItAwGeYD-Jv-3" style="rounded=0;orthogonalLoop=1;jettySize=auto;html=1;entryX=0;entryY=0.5;entryDx=0;entryDy=0;" edge="1" parent="TdQh5nYLvs6xpVCR4rOV-1" source="fTrJj0oOOItAwGeYD-Jv-0" target="0WsyRj6sKyPAaoaiVb-Q-4">
>>>>>>> de2711c22517fbf3a2df233e14c00a25f45ce55d
                    <mxGeometry relative="1" as="geometry"/>
                    &#xa;
                </mxCell>
<<<<<<< HEAD
                &#xa;
                <mxCell id="0WsyRj6sKyPAaoaiVb-Q-28" style="edgeStyle=none;rounded=0;orthogonalLoop=1;jettySize=auto;html=1;entryX=1;entryY=0.5;entryDx=0;entryDy=0;" parent="TdQh5nYLvs6xpVCR4rOV-1" source="0WsyRj6sKyPAaoaiVb-Q-26" target="0WsyRj6sKyPAaoaiVb-Q-6" edge="1">
                    &#xa;
                    <mxGeometry relative="1" as="geometry"/>
                    &#xa;
                </mxCell>
                &#xa;
                <mxCell id="0WsyRj6sKyPAaoaiVb-Q-26" value="正規社員" style="shape=umlActor;verticalLabelPosition=bottom;verticalAlign=top;html=1;outlineConnect=0;strokeColor=#36393d;fillColor=#f9f7ed;fontColor=#080808;" parent="TdQh5nYLvs6xpVCR4rOV-1" vertex="1">
                    &#xa;
                    <mxGeometry x="620" y="400" width="40" height="70" as="geometry"/>
                    &#xa;
=======
                <mxCell id="fTrJj0oOOItAwGeYD-Jv-4" value="ユーザ" style="text;html=1;align=center;verticalAlign=middle;resizable=0;points=[];autosize=1;strokeColor=none;" vertex="1" parent="TdQh5nYLvs6xpVCR4rOV-1">
                    <mxGeometry x="195" y="171" width="50" height="20" as="geometry"/>
>>>>>>> de2711c22517fbf3a2df233e14c00a25f45ce55d
                </mxCell>
                &#xa;
            </root>
            &#xa;
        </mxGraphModel>
        &#xa;
    </diagram>
</mxfile>